<?xml version="1.0" encoding="UTF-8"?>
<svg width="256px" height="256px" viewBox="0 0 256 256" version="1.1" xmlns="http://www.w3.org/2000/svg" xmlns:xlink="http://www.w3.org/1999/xlink" preserveAspectRatio="xMidYMid">
    <g>
        <path d="M255.152904,37.937763 L134.896865,252.97691 C132.413943,257.416338 125.858915,257.442331 123.345516,253.02723 L0.88631009,37.9584812 C-1.88239601,33.1438272 2.16407339,27.4582454 7.58365031,28.3308423 L128.320429,49.3271909 C129.147803,49.4856417 129.988874,49.4856417 130.816248,49.3271909 L248.272228,28.3622313 C253.702756,27.4726904 257.786456,33.1910381 255.152904,37.937763 Z" fill="#41B883"></path>
        <path d="M185.432401,0.0631038902 L128.402795,22.094638 C126.777834,22.7083592 126.790737,25.0816009 128.425099,25.6799639 L182.20807,45.6046838 C183.578881,46.1091248 185.122586,45.6291696 185.89945,44.4108348 L213.505021,3.0215304 C214.859198,0.84859228 212.604524,-1.50187372 210.270402,0.101529207 L185.432401,0.0631038902 Z" fill="#41B883"></path>
        <path d="M132.270712,145.914873 C132.270712,145.914873 74.0186689,73.3615471 71.7023301,69.9445453 C69.3859913,66.5275435 66.5152608,66.8886877 65.1758365,67.1211468 C63.8364123,67.3536058 9.12891209,83.7496657 9.12891209,83.7496657 C9.12891209,83.7496657 6.0301231,84.8558556 6.94328163,88.5081149 C7.85644016,92.1603742 69.3859913,233.292674 69.3859913,233.292674 C69.3859913,233.292674 71.7023301,238.970932 79.2270138,234.398843 C86.7516974,229.826754 128.811646,198.152483 128.811646,198.152483 C128.811646,198.152483 185.292599,261.870839 188.521478,265.984439 C191.750356,270.098039 197.468345,268.757536 199.688436,266.751894 C201.908528,264.746252 255.958012,234.398843 255.958012,234.398843 C255.958012,234.398843 259.186891,232.393201 258.273732,228.279601 C257.360574,224.166001 192.663514,88.5081149 192.663514,88.5081149 C192.663514,88.5081149 191.750356,84.3945556 187.608319,85.7350584 C183.466282,87.0755612 133.183871,108.496 133.183871,108.496 C133.183871,108.496 129.724992,110.501642 132.270712,114.615242 C134.816433,118.728842 177.748319,145.914873 177.748319,145.914873 C177.748319,145.914873 180.977197,147.920515 177.748319,150.387698 C174.519441,152.85488 132.270712,177.964053 132.270712,177.964053 C132.270712,177.964053 129.041834,179.969695 132.270712,182.898419 C135.499591,185.827142 177.748319,213.013174 177.748319,213.013174 C177.748319,213.013174 179.380637,214.557275 177.748319,216.665458 C176.116001,218.773641 132.270712,145.914873 132.270712,145.914873 Z" fill="#35495E"></path>
    </g>
</svg>
