<?xml version="1.0" encoding="UTF-8" standalone="no"?>
<svg width="1200" height="630" viewBox="0 0 1200 630" xmlns="http://www.w3.org/2000/svg">
  <!-- Background gradient -->
  <defs>
    <linearGradient id="bg-gradient" x1="0%" y1="0%" x2="100%" y2="100%">
      <stop offset="0%" stop-color="#24b47e" />
      <stop offset="100%" stop-color="#3ecf8e" />
    </linearGradient>
    <linearGradient id="text-gradient" x1="0%" y1="0%" x2="100%" y2="100%">
      <stop offset="0%" stop-color="#ffffff" />
      <stop offset="100%" stop-color="#f0f0f0" />
    </linearGradient>
  </defs>
  
  <!-- Background -->
  <rect width="1200" height="630" fill="url(#bg-gradient)" />
  
  <!-- Pattern overlay -->
  <g opacity="0.1">
    <path d="M0,0 L1200,630" stroke="white" stroke-width="2" />
    <path d="M0,630 L1200,0" stroke="white" stroke-width="2" />
    
    <!-- Dots pattern -->
    <g>
      <circle cx="200" cy="100" r="5" fill="white" />
      <circle cx="400" cy="100" r="5" fill="white" />
      <circle cx="600" cy="100" r="5" fill="white" />
      <circle cx="800" cy="100" r="5" fill="white" />
      <circle cx="1000" cy="100" r="5" fill="white" />
      
      <circle cx="200" cy="200" r="5" fill="white" />
      <circle cx="400" cy="200" r="5" fill="white" />
      <circle cx="600" cy="200" r="5" fill="white" />
      <circle cx="800" cy="200" r="5" fill="white" />
      <circle cx="1000" cy="200" r="5" fill="white" />
      
      <circle cx="200" cy="300" r="5" fill="white" />
      <circle cx="400" cy="300" r="5" fill="white" />
      <circle cx="600" cy="300" r="5" fill="white" />
      <circle cx="800" cy="300" r="5" fill="white" />
      <circle cx="1000" cy="300" r="5" fill="white" />
      
      <circle cx="200" cy="400" r="5" fill="white" />
      <circle cx="400" cy="400" r="5" fill="white" />
      <circle cx="600" cy="400" r="5" fill="white" />
      <circle cx="800" cy="400" r="5" fill="white" />
      <circle cx="1000" cy="400" r="5" fill="white" />
      
      <circle cx="200" cy="500" r="5" fill="white" />
      <circle cx="400" cy="500" r="5" fill="white" />
      <circle cx="600" cy="500" r="5" fill="white" />
      <circle cx="800" cy="500" r="5" fill="white" />
      <circle cx="1000" cy="500" r="5" fill="white" />
    </g>
  </g>
  
  <!-- Document icon -->
  <g transform="translate(300, 200)">
    <rect x="0" y="0" width="150" height="200" rx="10" fill="white" />
    <rect x="20" y="30" width="110" height="10" rx="5" fill="#24b47e" />
    <rect x="20" y="60" width="110" height="10" rx="5" fill="#24b47e" />
    <rect x="20" y="90" width="80" height="10" rx="5" fill="#24b47e" />
    <rect x="20" y="120" width="110" height="10" rx="5" fill="#24b47e" />
    <rect x="20" y="150" width="60" height="10" rx="5" fill="#24b47e" />
  </g>
  
  <!-- AI brain icon -->
  <g transform="translate(750, 200)">
    <circle cx="75" cy="75" r="75" fill="white" />
    <path d="M75,30 C45,30 30,60 30,90 C30,120 60,120 75,120 C90,120 120,120 120,90 C120,60 105,30 75,30 Z" fill="none" stroke="#24b47e" stroke-width="5" />
    <path d="M75,40 L75,110 M45,60 L105,60 M45,90 L105,90" stroke="#24b47e" stroke-width="5" />
    <circle cx="55" cy="70" r="5" fill="#24b47e" />
    <circle cx="95" cy="70" r="5" fill="#24b47e" />
    <circle cx="55" cy="100" r="5" fill="#24b47e" />
    <circle cx="95" cy="100" r="5" fill="#24b47e" />
  </g>
  
  <!-- Docgen text -->
  <g transform="translate(600, 450)">
    <text x="0" y="0" font-family="Arial, sans-serif" font-size="80" font-weight="bold" text-anchor="middle" fill="url(#text-gradient)">DOCGEN</text>
    <text x="0" y="50" font-family="Arial, sans-serif" font-size="30" text-anchor="middle" fill="white">AI Document Generation</text>
  </g>
</svg>
