<?xml version="1.0" encoding="UTF-8" standalone="no"?>
<svg width="512" height="512" viewBox="0 0 512 512" fill="none" xmlns="http://www.w3.org/2000/svg">
  <!-- Background -->
  <rect width="512" height="512" rx="100" fill="#4361ee" />
  
  <!-- Gradient overlay -->
  <rect width="512" height="512" rx="100" fill="url(#paint0_linear)" />
  
  <!-- VG Letters -->
  <path d="M150 140L210 372H250L310 140H270L225 320L180 140H150Z" fill="white" />
  <path d="M320 140C320 140 360 140 380 140C400 140 430 150 430 190C430 230 400 240 380 240H350V372H320V140ZM350 210H380C390 210 400 200 400 190C400 180 390 170 380 170H350V210Z" fill="white" />
  
  <!-- Data points and connections -->
  <circle cx="150" cy="140" r="8" fill="#3ecf8e" />
  <circle cx="210" cy="372" r="8" fill="#3ecf8e" />
  <circle cx="250" cy="372" r="8" fill="#3ecf8e" />
  <circle cx="310" cy="140" r="8" fill="#3ecf8e" />
  <circle cx="270" cy="140" r="8" fill="#3ecf8e" />
  <circle cx="225" cy="320" r="8" fill="#3ecf8e" />
  <circle cx="180" cy="140" r="8" fill="#3ecf8e" />
  
  <circle cx="320" cy="140" r="8" fill="#3ecf8e" />
  <circle cx="380" cy="140" r="8" fill="#3ecf8e" />
  <circle cx="430" cy="190" r="8" fill="#3ecf8e" />
  <circle cx="380" cy="240" r="8" fill="#3ecf8e" />
  <circle cx="350" cy="240" r="8" fill="#3ecf8e" />
  <circle cx="320" cy="372" r="8" fill="#3ecf8e" />
  
  <!-- Gradient definition -->
  <defs>
    <linearGradient id="paint0_linear" x1="0" y1="0" x2="512" y2="512" gradientUnits="userSpaceOnUse">
      <stop stop-color="#4361ee" stop-opacity="1" />
      <stop offset="1" stop-color="#3a0ca3" stop-opacity="0.8" />
    </linearGradient>
  </defs>
</svg>
